<svg xmlns="http://www.w3.org/2000/svg" viewBox="0 0 500 500"><g id="freepik--background-complete--inject-1"><rect y="382.4" width="500" height="0.25" style="fill:#ebebeb"></rect><rect x="416.78" y="398.49" width="33.12" height="0.25" style="fill:#ebebeb"></rect><rect x="322.53" y="401.21" width="8.69" height="0.25" style="fill:#ebebeb"></rect><rect x="396.59" y="389.21" width="19.19" height="0.25" style="fill:#ebebeb"></rect><rect x="52.46" y="390.89" width="43.19" height="0.25" style="fill:#ebebeb"></rect><rect x="104.56" y="390.89" width="6.33" height="0.25" style="fill:#ebebeb"></rect><rect x="131.47" y="395.11" width="93.68" height="0.25" style="fill:#ebebeb"></rect><path d="M237,337.8H43.91a5.71,5.71,0,0,1-5.7-5.71V60.66A5.71,5.71,0,0,1,43.91,55H237a5.71,5.71,0,0,1,5.71,5.71V332.09A5.71,5.71,0,0,1,237,337.8ZM43.91,55.2a5.46,5.46,0,0,0-5.45,5.46V332.09a5.46,5.46,0,0,0,5.45,5.46H237a5.47,5.47,0,0,0,5.46-5.46V60.66A5.47,5.47,0,0,0,237,55.2Z" style="fill:#ebebeb"></path><path d="M453.31,337.8H260.21a5.72,5.72,0,0,1-5.71-5.71V60.66A5.72,5.72,0,0,1,260.21,55h193.1A5.71,5.71,0,0,1,459,60.66V332.09A5.71,5.71,0,0,1,453.31,337.8ZM260.21,55.2a5.47,5.47,0,0,0-5.46,5.46V332.09a5.47,5.47,0,0,0,5.46,5.46h193.1a5.47,5.47,0,0,0,5.46-5.46V60.66a5.47,5.47,0,0,0-5.46-5.46Z" style="fill:#ebebeb"></path><rect x="92.03" y="285.87" width="126.42" height="8.92" style="fill:#ebebeb"></rect><rect x="163.48" y="285.87" width="54.97" height="8.92" style="fill:#e0e0e0"></rect><rect x="92.03" y="294.79" width="18.68" height="87.61" style="fill:#ebebeb"></rect><polygon points="110.71 303.83 92.03 297.47 92.03 294.79 110.71 294.79 110.71 303.83" style="fill:#e0e0e0"></polygon><rect x="199.77" y="294.79" width="18.68" height="87.61" style="fill:#e0e0e0"></rect><rect x="163.48" y="294.79" width="18.68" height="87.61" style="fill:#ebebeb"></rect><polygon points="182.15 303.83 163.48 297.47 163.48 294.79 182.15 294.79 182.15 303.83" style="fill:#e0e0e0"></polygon><rect x="128.32" y="294.79" width="18.68" height="87.61" style="fill:#e0e0e0"></rect><rect x="71" y="87.17" width="159.33" height="135.67" style="fill:#ebebeb"></rect><rect x="230.33" y="87.17" width="1.78" height="135.67" transform="translate(462.44 310) rotate(180)" style="fill:#e0e0e0"></rect><rect x="88.83" y="81.33" width="123.67" height="147.33" transform="translate(305.67 4.33) rotate(90)" style="fill:#f5f5f5"></rect><path d="M148.89,198.06c9-30,11.5-74.25,30.64-68.15s-5.93,71.53-5.93,71.53Z" style="fill:#fff"></path><path d="M164.35,199.55c-9.16-43.48-6.85-101.2-35.31-99.88s0,101.77,0,101.77Z" style="fill:#fff"></path><path d="M184.46,194.67H122.15a4.85,4.85,0,0,0-5,4.61c-1.27,28.7,3.43,58,12.18,86.59h47.71c8.75-28.64,13.45-57.89,12.18-86.59A4.8,4.8,0,0,0,184.46,194.67Z" style="fill:#ebebeb"></path><rect x="322.69" y="102.3" width="3.51" height="280.1" style="fill:#e0e0e0"></rect><rect x="405.18" y="102.3" width="3.51" height="280.1" style="fill:#e0e0e0"></rect><rect x="297.8" y="102.3" width="3.51" height="280.1" style="fill:#ebebeb"></rect><rect x="380.29" y="102.3" width="3.51" height="280.1" style="fill:#ebebeb"></rect><rect x="297.8" y="100.38" width="110.89" height="3.83" style="fill:#ebebeb"></rect><rect x="297.8" y="168.97" width="110.89" height="3.83" style="fill:#ebebeb"></rect><rect x="297.8" y="237.56" width="110.89" height="3.83" style="fill:#ebebeb"></rect><rect x="297.8" y="306.15" width="110.89" height="3.83" style="fill:#ebebeb"></rect><rect x="297.8" y="374.74" width="110.89" height="3.83" style="fill:#ebebeb"></rect><rect x="383.8" y="100.38" width="24.89" height="3.83" style="fill:#e0e0e0"></rect><rect x="383.8" y="168.97" width="24.89" height="3.83" style="fill:#e0e0e0"></rect><rect x="383.8" y="237.56" width="24.89" height="3.83" style="fill:#e0e0e0"></rect><rect x="383.8" y="306.15" width="24.89" height="3.83" style="fill:#e0e0e0"></rect><rect x="383.8" y="374.74" width="24.89" height="3.83" style="fill:#e0e0e0"></rect><path d="M342.53,123.71v-5.4H329.2v5.4a6.39,6.39,0,0,1-6.38,6.39h0a6.39,6.39,0,0,0-6.39,6.38V169h38.88V136.48a6.39,6.39,0,0,0-6.39-6.38h0A6.39,6.39,0,0,1,342.53,123.71Z" style="fill:#f0f0f0"></path><rect x="311.7" y="215.26" width="58.42" height="22.31" style="fill:#f0f0f0"></rect><rect x="370.12" y="215.26" width="10.17" height="22.31" transform="translate(750.41 452.82) rotate(180)" style="fill:#e6e6e6"></rect><rect x="370.12" y="225.18" width="10.17" height="2.46" transform="translate(750.41 452.82) rotate(180)" style="fill:#ebebeb"></rect><rect x="311.7" y="225.18" width="58.42" height="2.46" style="fill:#f5f5f5"></rect><rect x="308.84" y="335.3" width="45.63" height="39.44" style="fill:#f0f0f0"></rect><rect x="354.47" y="335.3" width="7.94" height="39.44" transform="translate(716.88 710.05) rotate(180)" style="fill:#e6e6e6"></rect><rect x="354.47" y="352.85" width="7.94" height="4.35" transform="translate(716.88 710.05) rotate(180)" style="fill:#ebebeb"></rect><rect x="308.84" y="352.85" width="45.63" height="4.35" style="fill:#f5f5f5"></rect><rect x="354.47" y="348.25" width="7.94" height="1.55" transform="translate(716.88 698.05) rotate(180)" style="fill:#ebebeb"></rect><rect x="308.84" y="348.25" width="45.63" height="1.55" style="fill:#f5f5f5"></rect><rect x="311.7" y="266.05" width="8.26" height="40.1" style="fill:#f0f0f0"></rect><rect x="311.7" y="280.34" width="8.26" height="11.52" style="fill:#fafafa"></rect><rect x="319.97" y="266.05" width="28.1" height="40.1" transform="translate(668.03 572.21) rotate(180)" style="fill:#e6e6e6"></rect><rect x="323.39" y="260.87" width="9.33" height="45.28" style="fill:#ebebeb"></rect><rect x="323.39" y="275.26" width="9.33" height="6.97" style="fill:#fafafa"></rect><rect x="323.39" y="286.9" width="9.33" height="6.97" style="fill:#fafafa"></rect><rect x="332.72" y="260.87" width="31.73" height="45.28" transform="translate(697.18 567.02) rotate(180)" style="fill:#e0e0e0"></rect><rect x="338.08" y="266.05" width="5.03" height="40.1" style="fill:#f0f0f0"></rect><rect x="338.94" y="271.13" width="3.3" height="29.94" style="fill:#fafafa"></rect><rect x="343.11" y="266.05" width="17.09" height="40.1" transform="translate(703.3 572.21) rotate(180)" style="fill:#e6e6e6"></rect><rect x="350.86" y="263.94" width="5.68" height="42.21" style="fill:#ebebeb"></rect><rect x="350.86" y="277.35" width="5.68" height="6.5" style="fill:#fafafa"></rect><rect x="350.86" y="288.21" width="5.68" height="6.5" style="fill:#fafafa"></rect><rect x="356.54" y="263.94" width="19.3" height="42.21" transform="translate(732.38 570.09) rotate(180)" style="fill:#e0e0e0"></rect><circle cx="345.16" cy="202.82" r="12.44" transform="translate(-42.32 303.47) rotate(-45)" style="fill:#f5f5f5"></circle><circle cx="358.92" cy="206.63" r="8.62" transform="translate(-28.46 60.16) rotate(-9.22)" style="fill:#ebebeb"></circle></g><g id="freepik--Shadow--inject-1"><ellipse id="freepik--path--inject-1" cx="250" cy="416.24" rx="193.89" ry="11.32" style="fill:#f5f5f5"></ellipse></g><g id="freepik--Box--inject-1"><path d="M126.11,338.69H254.55a0,0,0,0,1,0,0V405a6.47,6.47,0,0,1-6.47,6.47H132.58a6.47,6.47,0,0,1-6.47-6.47V338.69A0,0,0,0,1,126.11,338.69Z" style="fill:#263238"></path><path d="M126.11,338.69H217l-11.18-14.31c-1.23-1.57-4.27-2.84-6.8-2.84H117.28c-2.52,0-3.58,1.27-2.35,2.84Z" style="fill:#263238"></path><path d="M126.11,338.69H217l-11.18-14.31c-1.23-1.57-4.27-2.84-6.8-2.84H117.28c-2.52,0-3.58,1.27-2.35,2.84Z" style="opacity:0.2"></path><path d="M254.55,338.69H163.67l11.18-9.33c1.23-1,4.27-1.85,6.8-1.85h81.73c2.53,0,3.58.83,2.35,1.85Z" style="fill:#263238"></path><path d="M163.67,338.69h90.88a0,0,0,0,1,0,0V405a6.47,6.47,0,0,1-6.47,6.47H170.14a6.47,6.47,0,0,1-6.47-6.47V338.69A0,0,0,0,1,163.67,338.69Z" style="fill:#fff;opacity:0.2"></path><polygon points="137.39 338.69 137.39 384.17 140.53 381.69 142.74 384.17 144.66 381.41 146.63 384.17 149.37 382.1 152.39 384.17 152.39 338.69 137.39 338.69" style="fill:#fff;opacity:0.5"></polygon></g></svg>
